<svg width="53" height="54" xmlns="http://www.w3.org/2000/svg" xmlns:xlink="http://www.w3.org/1999/xlink" xml:space="preserve" overflow="hidden"><g transform="translate(-966 -352)"><path d="M40.5781 12.1458 38.425 14.299C45.2708 21.1448 45.2708 32.2969 38.425 39.1427L40.5781 41.2958C48.6385 33.2906 48.6385 20.2062 40.5781 12.1458Z" transform="matrix(1 0 0 1.01887 966 352)"/><path d="M36.2167 16.4521 34.0635 18.6052C38.5354 23.0771 38.5354 30.3094 34.0635 34.8365L36.2167 36.9896C41.9031 31.3031 41.9031 22.1385 36.2167 16.4521Z" transform="matrix(1 0 0 1.01887 966 352)"/><path d="M31.9656 20.8687 29.8125 23.0219C31.9104 25.1198 31.9104 28.4875 29.8125 30.5854L31.9656 32.7385C35.2781 29.426 35.2781 24.126 31.9656 20.8687Z" transform="matrix(1 0 0 1.01887 966 352)"/><path d="M1.93229 19.1021 1.93229 33.8979 12.6427 33.8979 26.5 45.2708 26.5 7.72917 12.6427 19.1021Z" transform="matrix(1 0 0 1.01887 966 352)"/></g></svg>